<?xml version="1.0" encoding="UTF-8"?>
<svg version="1.1" viewBox="0 0 2048 1592" width="70" height="70" xmlns="http://www.w3.org/2000/svg">
<path transform="translate(0)" d="m0 0h2048v1592h-2048z"/>
<path transform="translate(1128,234)" d="m0 0 3 1 14 26 17 28 14 25 12 21 17 29 14 24 16 28 14 24 10 18 15 25 24 42 15 26 16 27 10 18 15 26 12 20 16 28 28 48 16 28 28 48 14 25 14 22 3 5-1 3h-305l-4-4-13-21-14-24-16-28-30-52-16-27-14-25-10-17-60-104-13-23-12-20-2-4 1-5 12-17 10-18 13-23 10-17 14-24 10-18 14-24 15-26 8-14 15-26 14-24 12-22z" fill="#fff"/>
<path transform="translate(916,603)" d="m0 0 4 4 13 25 26 44 14 25 16 27 11 19 13 23 19 32 10 18 15 26 12 20 1 5-13 21-9 16-12 20-3 6 139 1h359l3 3 14 29 15 25 16 27-1 3h-904l2-6 6-9 28-49 16-27 15-27 12-20 14-24 13-23 13-22 12-21 13-23 10-17 17-29 10-18 16-27 12-21 10-18 15-26 7-11z" fill="#fff"/>
<path transform="translate(608,1124)" d="m0 0h208l106 1-1 5-10 15-14 24-14 25-12 21-15 25-13 23-15 26-13 22-13 23-17 29-10 17-6 10-2 2h-315l2-6 17-28 11-20 28-48 16-27 32-56 14-24 12-21 17-29 5-8z" fill="#fff"/>
<path transform="translate(1556,1124)" d="m0 0h24l55 1 5 3 14 27 10 17 15 26 14 24 14 25 9 15 17 29 14 25 14 24 12 20 13 22 4 9-1 1h-299l-15-25-14-24-14-25-15-25-13-23-16-28-15-25-28-49-17-29-7-11v-2l2-1z" fill="#fff"/>
</svg>
